<svg id="visual" viewBox="0 0 960 540" width="960" height="540" xmlns="http://www.w3.org/2000/svg" xmlns:xlink="http://www.w3.org/1999/xlink" version="1.1"><path d="M0 409L22.8 410C45.7 411 91.3 413 137 408C182.7 403 228.3 391 274 388.3C319.7 385.7 365.3 392.3 411.2 388.5C457 384.7 503 370.3 548.8 365.5C594.7 360.7 640.3 365.3 686 377.2C731.7 389 777.3 408 823 409C868.7 410 914.3 393 937.2 384.5L960 376L960 541L937.2 541C914.3 541 868.7 541 823 541C777.3 541 731.7 541 686 541C640.3 541 594.7 541 548.8 541C503 541 457 541 411.2 541C365.3 541 319.7 541 274 541C228.3 541 182.7 541 137 541C91.3 541 45.7 541 22.8 541L0 541Z" fill="#eeeeee" stroke-linecap="round" stroke-linejoin="miter"></path></svg>